<svg width="361.54608" height="792.5788" xmlns="http://www.w3.org/2000/svg" xmlns:undefined="http://mapsvg.com" version="1.1">

 <g>
  <title>Layer 1</title>
  <path d="m147.09,251.72l0.12,-0.06l0.61,-0.52l-0.44,-1.91l-0.38,-0.52l-0.81,-0.38l-0.54,-0.18l-0.53,-0.33l-0.7,-3.11l0.19,-1.91l0.57,-2.49l0.68,-0.51l0.73,-0.29l0.41,-0.09l0.37,-0.07l0.42,0.03l2.52,-1.16l3.05,-4.43l-0.55,-1.9l-3.06,-3.98l-0.92,-1.95l-0.61,-0.61l-2.87,-0.97l-1.19,-0.17l-2.31,-0.22l-2.4,-0.52l-0.27,-2.92l0.11,-0.52l0.51,-0.32l0.51,0.13l0.46,0.26l0.36,0.17l0.41,0.18l2,0.24l0.5,-0.19l0.33,-0.55l0.43,-0.2l1.03,0.22l0.38,0.16l0.36,0.17l0.36,0.14l0.45,-0.07l0.37,-0.14l0.96,-0.51l0.67,-0.27l0.49,0l0.36,0.09l0.52,0.36l0.85,0.65l0.48,0.24l0.54,0.18l0.62,0l0.5,-0.14l0.94,-1.3l0.1,-0.76l-0.13,-0.72l-0.08,-0.64l0.76,-1.81l0.82,-0.14l0.42,-0.45l0.23,-0.85l-0.96,-2.12l-0.61,-0.54l-3.72,-0.75l-1.44,0.05l-1.18,0.19l-1.46,0l-2.76,-0.05l-0.89,-0.19l-0.46,-0.71l0.19,-0.51l0.82,-0.6l0.06,-2.84l-0.11,-0.64l-0.33,-0.7l0.71,-1.97l0.59,-0.63l1.65,-2.57l0.16,-0.46l-0.04,-0.55l-0.9,-1.24l-1.04,-1.18l-0.94,-1.41l0.01,-0.72l0.38,-0.22l0.36,-0.14l1.15,-0.77l0.23,-0.57l-0.21,-1.61l-2.66,-2.52l-1.57,-1.17l0.1,-1.65l0.62,-1.54l1.82,-0.6l0.66,0.16l0.34,-0.24l0.12,-0.47l-0.11,-2.54l-1.74,-1.07l-0.59,-0.15l-1.14,-0.12l-0.51,-0.02l-0.73,0.01l-0.97,-0.42l-0.46,-0.39l-0.72,-1.23l-0.34,-0.82l0.06,-1.23l0.13,-0.48l0.23,-0.55l0.17,-0.8l0.04,-0.66l-0.09,-2.32l-0.07,-0.98l-0.31,-1.28l-0.2,-1.91l0.07,-0.53l0.17,-0.53l0.26,-0.5l1.21,-3.87l-0.22,-0.47l-0.94,-0.82l-0.39,-0.75l1.67,-3.32l0.37,-0.37l0.43,-0.23l0.58,0.12l0.25,0.42l0.19,0.63l0.55,0.09l2.36,-1.11l0.91,-0.86l-0.09,-1.6l-0.51,-0.72l0,0l6.53,0.01l3.02,-0.02l11.47,0l0.6,0.02l12.07,-0.02l11.47,0.02l7.85,0l10.87,-0.02l8.46,0.01l21.12,-0.01l12.68,0.02l13.89,-0.02l1.28,0.26l0,0l0.88,2l0.36,0.48l0.56,0.61l0.52,0.48l1.04,0.79l2.52,0.95l2.43,0.7l0.38,0.01l0.79,-0.28l0.71,0.12l0.64,0.36l-0.28,0.45l-0.49,0.43l-0.49,0.52l-0.32,0.52l-0.89,1.54l0.1,0.66l2.6,0.28l5.73,-0.23l0.4,-0.12l0.92,-0.85l0.28,-0.46l0.04,-1.64l-0.33,-0.78l-0.37,-0.29l-0.49,-0.17l-0.57,-0.07l-1.46,0.05l-0.47,0.06l-0.8,0.01l-0.64,-0.38l0.58,-0.4l2.44,-0.48l2.68,-1.09l2.09,-1.31l0.47,-0.22l0.43,-0.1l1.36,-0.21l0.41,0l0.33,0.25l0.65,1.57l0.21,0.65l0.23,0.63l0.37,0.65l0.64,0.71l0.23,0.45l0.17,0.43l0.14,0.56l0.13,6.92l-0.89,3.68l-1.01,1.26l-0.59,0.23l-0.62,0.09l-1.58,0.35l-4.08,1.05l-0.63,0.07l-0.7,-0.39l-2.01,-2.4l-0.05,-0.63l0.47,-1.43l0.47,-1.13l-2.13,-2.32l-0.34,-0.25l-1.14,-0.61l-1.01,-0.21l-0.73,0.01l-0.51,0.02l-1.74,0.27l-2.1,0.98l-0.37,0.51l-0.42,0.6l-0.77,0.59l-0.35,0.16l-0.65,0.05l-0.96,0.26l-0.45,0.33l-1.18,2.03l0.17,0.84l0.36,0.4l0.89,0.19l2.44,0.97l1.37,0.8l0.94,0.84l0.39,0.29l0.53,0.3l0.61,0.22l3.25,0.9l0.44,-0.05l1.23,-0.58l0.46,0.97l-1.23,0.98l-0.5,0.36l-3.61,1.76l-2.04,0.41l-1.18,0.39l-0.56,0.3l-0.57,0.38l-1.78,1.47l-1.88,1.87l-0.17,0.44l-1.62,3.23l-2.22,2.82l-0.52,0.84l-0.78,1.39l-0.17,1.37l0.03,0.58l0.33,2.18l0.33,0.62l0.26,0.62l0.23,0.83l0.23,1.5l0.5,-0.21l0.37,-0.08l-0.33,3.84l-0.49,0.22l-0.69,0.29l-0.34,1.4l0.07,0.51l0.72,1.97l0.35,0.69l-1.33,2.33l-0.29,0.57l-0.88,2.38l-3.79,2.4l-0.5,0.47l-0.27,0.34l-0.9,1.62l-0.55,1.62l-0.03,0.76l0.15,0.6l0.8,0.57l0.74,0.08l1.64,0.95l-1.34,3.27l-1.4,0.56l-0.66,-0.45l-0.45,-0.35l-1.68,-0.63l-4.88,-0.64l-1.28,0.08l-3.1,1.72l-2.97,1.34l-0.27,0.7l-0.62,1.17l-2.15,1.05l-2.6,0.27l-0.44,0.09l-1.69,1.07l-0.79,0.71l-0.86,1.43l-1.15,2.17l-1.46,2.69l-0.28,0.35l-0.97,0.8l-0.86,0.66l-0.37,0.6l-0.19,0.6l-0.94,3.94l-0.65,0.6l-2.17,2.85l-0.86,1.86l0,0l-0.89,-0.02l-16.9,0.02l-0.6,-0.02l-17.5,0l-0.61,0.02l-23.56,-0.02l-3.61,0.02l-7.84,0l-2.04,-0.02z" title="Chubut" id="AR-U"/>
  <path d="m275.97,263.69l-0.31,0.28l-1.85,0.91l-1.22,-0.73l0,-0.99l0.59,-1.29l0.55,-0.24l0,0l0.12,0.18l0.65,0.54l0.5,0.09l0.55,0.22l0.42,1.03z" title="Ciudad de Buenos Aires" id="AR-C"/>
  <path d="m147.42,95.32l0.28,-0.01l0.75,1.06l0.47,0.22l1.67,-0.09l0.26,-0.43l0.13,-0.88l0.64,-2.95l0.85,-2.45l0.28,-2.1l-0.26,-2.57l-0.18,-1.48l-0.18,-0.62l-0.01,-0.59l0.07,-1.24l0.15,-0.58l0.3,-0.51l0.6,-0.57l0.48,-0.31l1.73,-1.03l2.55,-1.51l0.81,-0.4l0.49,-0.07l0.57,0.06l0.88,0.02l0.41,-0.19l1.11,-1.17l0.59,-2.36l0.07,-0.74l-0.33,-0.79l-0.67,-0.53l-0.48,-0.29l-0.77,-0.81l-0.39,-0.82l-0.57,-3l-0.19,-1.32l0.23,-1.68l0.04,-1.93l-1.75,-4.29l-0.52,-1.03l-0.24,-1.06l-0.43,-1.04l-0.34,-1.12l-0.05,-0.86l0.12,-0.74l0.33,-0.4l0.62,-0.47l0.26,-2.93l-0.17,-0.55l-0.49,-0.66l-0.39,-0.61l-0.53,-1.74l0.24,-0.76l0.63,-0.74l0.33,-1l0.31,-1.75l-0.65,-3.15l-0.68,-2.93l0.89,-2.33l1.49,-4.38l0.37,-1.42l0.32,-0.18l0.63,0.18l0.53,0.07l4.45,-1.62l0.19,-0.53l-0.4,-1.05l0.25,-1.65l2.1,-2.36l1.53,-0.06l0.67,0.05l0.52,-0.29l0.26,-0.34l0,0l0.36,0.17l0.56,0.6l0.29,0.82l-0.09,1.14l-0.33,0.47l-0.03,0.78l0.28,0.86l0.41,0.52l0.51,-0.07l0.55,-0.3l0.37,0.14l0.3,0.56l0.38,1.53l0.08,0.59l0.09,0.47l0.21,0.51l0.82,1.19l0.53,0.27l1.07,0.35l2.22,2.26l0.32,0.83l0.12,0.71l0.32,0.38l0.7,0.6l0.88,0.47l0.53,0.16l0.14,0.88l0.02,0.8l-0.08,0.74l-0.43,1.03l1.09,1.72l0.55,0.56l0.63,0.45l0.98,0.66l0.81,0.27l0.76,0.15l1.56,0.17l0.57,-0.13l0.62,-0.26l1.21,-0.17l0.75,-0.07l0.46,0.03l2.54,1.03l0.74,0.47l0.38,0.51l0.22,0.58l0.1,0.86l0.25,0.75l0.53,0.48l0.67,0.25l1.56,0.38l0.4,0l0.4,-0.16l0.62,-0.2l0.45,-0.02l3.26,1.7l2.19,1.35l2.38,1.1l1.61,0.3l0,0l-0.01,0.43l-0.03,19.55l-0.04,12.28l-4.12,2.1l-0.48,0.1l-0.63,0.17l-1.28,1.12l-0.42,0.6l-0.3,0.95l-0.18,0.44l-0.3,0.37l-1.89,1.44l-0.4,0.42l-1.41,2.22l-1.03,1.82l-0.58,0.47l-1.5,0.71l-0.57,0.06l-0.8,0.02l-1.73,1.08l-0.5,0.36l-0.43,0.49l-0.38,0.56l-0.3,0.66l-0.33,0.74l-0.29,0.38l-0.33,0.33l-1.82,1.49l-0.5,0.28l-0.93,0.13l-0.63,0.18l-3.16,1.31l-2.31,1.05l-0.54,0.32l-0.54,0.42l-0.41,0.52l-0.36,0.7l-0.42,1.34l-0.03,0.5l0.15,0.45l0.24,0.38l-0.02,1.72l-1.32,4.03l-0.35,0.61l-1.76,2.25l-0.41,0.21l-3.33,0.97l-0.78,-0.12l-0.44,-0.26l-0.37,-0.18l-0.58,0.01l-0.73,0.29l-0.74,0.45l-0.33,0.33l-0.41,0.52l-0.35,0.21l-0.48,0.09l-1.56,0.12l-0.81,0.04l-0.88,0.34l-0.4,0.21l-1.82,1.1l-2.18,1.95l-0.2,0.53l-0.09,0.77l0.26,0.49l0.45,0.45l0.35,0.46l0.24,0.6l0.13,1.11l-0.23,0.82l-0.3,0.47l-1.63,1.9l-1.51,0.76l-0.78,0.18l-0.7,-0.02l-0.6,-0.09l-0.62,-0.16l-0.4,-0.15l-0.96,-0.49l-1.3,-0.55l-0.74,-0.13l-4.64,-0.46l-0.54,0.02l0,0l0.38,-1.33l-0.22,-1.03l-1.16,-2.54l-0.65,-1.88l0.36,-0.61l0.55,-0.48l0.38,-0.39l0.36,-0.51l0.36,-1.01l-0.02,-0.65l0.05,-0.99l1.05,-2.91l0.38,0.03l0.41,0.41l0.37,-0.1l0.25,-0.45l0.69,-1.66l-0.09,-0.89l-0.62,-0.42l-0.3,0.55l-1.3,-1.34l-0.48,-0.97l0.48,-2.11l0.75,-0.61l1.5,-0.99l0.61,-2.28l-0.65,-2.26l-0.65,-2.98l-0.07,-2.36l0.35,-1.2l0.14,-0.2z" title="Neuquén" id="AR-Q"/>
  <path d="m145.01,152.3l-0.07,-1.3l-0.25,-1.43l-0.19,-0.63l-1.13,-2.3l-1.16,-2.76l0,-0.69l0.4,-0.47l0.77,-1.32l-0.32,-2.81l-0.46,-1.1l-0.11,-0.73l0.28,-1.51l0.32,-0.67l0.08,-0.58l0.38,-4.38l-0.34,-1.14l0,0l0.54,-0.02l4.64,0.46l0.74,0.13l1.3,0.55l0.96,0.49l0.4,0.15l0.62,0.16l0.6,0.09l0.7,0.02l0.78,-0.18l1.51,-0.76l1.63,-1.9l0.3,-0.47l0.23,-0.82l-0.13,-1.11l-0.24,-0.6l-0.35,-0.46l-0.45,-0.45l-0.26,-0.49l0.09,-0.77l0.2,-0.53l2.18,-1.95l1.82,-1.1l0.4,-0.21l0.88,-0.34l0.81,-0.04l1.56,-0.12l0.48,-0.09l0.35,-0.21l0.41,-0.52l0.33,-0.33l0.74,-0.45l0.73,-0.29l0.58,-0.01l0.37,0.18l0.44,0.26l0.78,0.12l3.33,-0.97l0.41,-0.21l1.76,-2.25l0.35,-0.61l1.32,-4.03l0.02,-1.72l-0.24,-0.38l-0.15,-0.45l0.03,-0.5l0.42,-1.34l0.36,-0.7l0.41,-0.52l0.54,-0.42l0.54,-0.32l2.31,-1.05l3.16,-1.31l0.63,-0.18l0.93,-0.13l0.5,-0.28l1.82,-1.49l0.33,-0.33l0.29,-0.38l0.33,-0.74l0.3,-0.66l0.38,-0.56l0.43,-0.49l0.5,-0.36l1.73,-1.08l0.8,-0.02l0.57,-0.06l1.5,-0.71l0.58,-0.47l1.03,-1.82l1.41,-2.22l0.4,-0.42l1.89,-1.44l0.3,-0.37l0.18,-0.44l0.3,-0.95l0.42,-0.6l1.28,-1.12l0.63,-0.17l0.48,-0.1l4.12,-2.1l0.04,-12.28l0.03,-19.55l0.01,-0.43l0,0l0.85,-0.06l2.51,0.2l2.76,0.35l0.4,0.13l1.03,0.38l0.61,0.33l0.46,0.42l0.37,0.55l0.48,0.91l0.3,0.9l-0.04,1.07l-0.34,0.87l-0.27,0.49l-0.3,0.28l-0.47,0.19l-0.44,0.2l-0.97,1.04l-0.19,0.74l0.13,1.59l0.78,0.96l0.8,-0.13l0.53,0.12l0.45,0.3l0.43,0.45l0.28,0.48l0.24,0.59l0.15,0.62l0.39,0.62l0.97,0.95l0.38,0.28l0.49,0.2l0.42,0.05l2.97,-0.28l0.54,-0.21l0.67,-0.4l0.35,-0.27l0.37,-0.06l1.44,0.3l0.43,1.63l0.2,1.07l1.09,1.36l0.32,0.24l1.63,0.91l1.22,0.49l1.46,0.38l0.47,0.15l2.36,1.17l0.52,0.39l0.53,0.58l0.23,0.38l0.2,0.48l0.03,0.93l0.35,0.74l3.26,0.95l1.86,-0.29l0.59,-0.23l0.98,0.02l1.14,0.07l1.17,0.09l1.38,0.21l2.63,0.76l1.21,0.66l1.89,0.52l0.53,-0.33l1.01,-0.57l0.5,-0.03l1.19,0.23l1.29,0.46l0.54,0.43l0.35,0.24l2.2,-0.3l0.58,-0.16l0.62,-0.28l0.37,-0.07l2.32,-0.05l4.25,0.32l4.64,0.86l0.94,0.05l0.69,0.03l1.23,0.34l0.64,0.2l1.77,0.66l0.83,0.36l0.89,0.47l3.17,1.82l1.9,1.81l3.16,2.36l3.62,2.61l0.64,0.27l0.46,0.07l1.04,-0.07l0,0l0.02,1.66l0.01,6.87l-0.02,22.78l0.12,1.32l0.36,0.18l2.07,0.35l0.9,0.05l0.49,0.07l0.93,0.28l0.54,0.3l1.56,1.08l1.39,1.34l0.36,0.45l1.21,1.72l0.46,0.73l0.53,0.97l0.24,0.51l0,0l-4.12,1.9l-0.29,0.29l-0.38,0.26l-0.45,0.1l-1.46,0.17l-4.07,0.03l-1.32,-0.08l-2.25,0.08l-2.08,0.1l-0.43,0.01l-1.32,-0.04l-0.59,-0.14l-0.58,-0.28l-0.64,-0.43l-0.62,-0.66l-0.38,-0.43l-0.5,-0.42l-0.65,-0.32l-1.27,-0.41l-1.55,-0.38l-2.71,-1.45l-3.39,-1.45l-0.43,-0.11l-3.86,-1.47l-0.47,-0.79l-0.52,-1.62l-0.49,-0.22l-1.45,-0.33l-0.45,-0.03l-0.5,0.09l-0.84,0.31l-2.66,2.87l-0.66,2.09l-0.23,1.41l0.22,2.4l0.1,0.56l0.53,2.68l1.2,5.14l0.38,0.62l0.37,0.37l0.38,0.28l0.22,0.59l-0.07,1.04l-0.09,0.48l-0.26,0.74l-0.22,0.71l-0.02,1.09l0.14,0.79l0.16,0.52l0.31,0.69l-0.24,1.07l-0.28,0.71l-0.88,2.06l-0.14,0.75l0.06,0.59l0.25,0.68l0,0l-1.28,-0.26l-13.89,0.02l-12.68,-0.02l-12.67,0.01l-16.91,-0.01l-10.87,0.02l-7.85,0l-11.47,-0.02l-12.07,0.02l-0.6,-0.02l-11.47,0l-3.02,0.02l-6.53,-0.01z" title="Río Negro" id="AR-R"/>
  <path d="m223.02,329.52l-0.95,0.95l-0.45,0.6l-0.96,2.14l0.44,1.46l-1.16,2.02l-0.87,1.11l-0.76,0.9l-0.41,0.36l-0.67,1.57l1.91,-0.22l0.45,-0.74l0.17,-0.78l0.68,-1.76l0.45,-0.21l0.36,0.32l-0.92,4.53l-0.6,2.65l-0.53,3.03l-0.18,2.12l-0.15,1.39l-0.29,1.64l-0.23,1.13l-0.16,0.61l-0.24,0.73l-0.4,0.58l-1.19,1.33l-0.39,0.39l-1.38,1.23l-0.58,0.49l-0.66,0.5l-0.35,0.24l-2.11,1l-0.41,0.18l-0.78,0.19l-0.54,0.03l-0.39,0l-0.66,-0.07l-1.68,-1.48l-1.49,-2.52l-1.56,-1.4l-0.25,0.58l-1.56,0.71l-0.67,-0.06l-1.88,-0.11l-0.37,0.01l-1.67,0.44l-0.37,0.13l-0.66,0.58l1.7,-0.19l0.47,-0.3l0.7,-0.27l0.54,0.01l0.58,0.19l2.07,0.07l0.39,-0.09l0.52,-0.25l0.6,0l0.58,0.49l0.3,0.76l0.24,0.92l0.25,0.43l0.38,0.32l0.33,0.25l1.66,1.12l0.09,0.63l-0.43,0.74l-0.48,0.39l-0.39,0.2l-0.55,0.23l-1.31,0.45l-1.86,0.67l-2.2,1.11l-0.88,0.48l-0.57,0.4l-0.41,0.38l-1.2,1.53l-0.32,0.47l-1.97,3.34l-0.25,0.54l-0.39,1.49l-0.78,4.28l0.01,1.71l0.13,1.63l-0.1,0.6l-0.52,0.77l-1.35,1.62l-1.17,1.03l-0.4,0.39l-0.81,0.97l-0.5,0.9l0.71,-0.77l1.16,-1.22l1.99,-1.25l0.54,1.11l0.35,1.17l0.01,0.9l-0.04,0.86l0.07,0.71l0.16,0.72l1.35,4.87l0.19,0.6l0.71,2.09l0.55,1.53l0.25,0.95l0.2,1.03l-0.31,0.96l-0.46,-0.01l-0.34,-0.27l-0.73,0.13l-0.43,0.27l-0.95,0.96l-0.44,-0.07l-0.92,-0.4l-1.64,-1.05l-1.41,-0.04l-1.92,0.58l-2.34,1.39l1.09,-0.17l0.42,-0.17l0.55,-0.26l1.96,-0.33l0.74,0.07l1.62,0.44l1.41,0.72l3,-0.5l0.43,0.21l1.22,2.23l1.03,2.38l1.01,2.62l0.33,0.79l1.89,3.61l1.34,2.15l0.32,0.49l0.41,0.51l1.08,1.25l1.33,2.14l0.59,1.16l0.45,1.29l-0.69,1.33l-0.38,0.16l0.11,-1.45l-2.53,-0.69l-1.33,-0.24l-1.43,-0.22l-1.83,-0.3l-1.94,-1.45l-1,-0.72l-0.75,-0.34l-3.64,-1.51l-0.98,0.02l-3.15,-0.01l-5.51,-2.45l-3.21,-1.46l-1,-0.42l-2.03,0l-5.88,0.03l-14.46,0l-8.36,-0.01l-3.91,-0.04l-0.58,-2.39l0,-0.97l-0.31,-0.77l-2.31,-2.64l-0.88,-0.71l-0.46,-0.34l-0.37,-0.24l-0.49,-0.23l-0.9,-0.16l-0.56,-0.31l-2.02,-5.31l0.57,-0.43l0.39,-0.41l0.69,-2.48l-0.07,-1.15l0.03,-1.39l0.35,-0.78l0.54,-0.55l0.24,-0.79l-0.74,-0.97l-0.66,-0.35l-0.45,-0.35l-0.44,-0.6l-0.35,-1.47l1.11,-2.12l0.94,-0.11l0.3,-0.57l0.42,-4.47l-0.21,-0.66l-0.48,-0.88l-0.4,-0.58l-0.58,-0.7l-0.07,-0.7l0.69,-1.54l0.12,-0.7l-1.39,-1.1l-2.19,-0.32l-0.49,0.08l-0.44,0.23l-0.4,0.5l-0.4,0.8l-0.36,0.27l-0.59,0.08l-0.58,-0.23l-0.36,-0.32l-0.32,-0.43l-0.51,-0.48l-0.53,0l-1.93,0.96l-0.6,0.37l-0.36,0.34l-1.05,1.44l-0.62,0.56l-0.62,0.35l-0.57,0.2l-0.46,0.11l-0.51,-0.08l-0.38,-0.31l-0.33,-0.55l-0.95,-4.03l-0.37,-2.78l-0.31,-4.11l-0.2,-0.76l-0.72,-1.74l-0.27,-0.49l-0.3,-0.38l-1.59,-1.27l-1.56,-1.21l-0.25,-0.8l0.21,-0.91l0.42,-0.88l0.5,-0.69l0.07,-0.85l-0.36,-0.5l-0.45,-0.43l-0.71,-0.78l0.45,-2.47l0.5,-0.6l0.64,-0.61l0.36,-0.52l-1.25,-5.19l-0.97,-1.28l-0.24,-0.51l0.77,-2.71l1.36,-3.66l0.75,-0.05l5.2,-0.15l0.9,-1.02l-1.47,-0.41l-0.13,-0.27l-0.04,-0.58l1.81,-4.25l1.28,-1.91l0.43,-0.55l0.56,-0.38l0.65,-0.28l0.36,-0.1l0.72,0.03l0.82,-0.17l0.54,-0.21l0.47,-0.28l0.33,-0.23l0.51,-0.44l2.21,-2.17l0.47,-0.69l0.16,-0.62l0,-1.25l-0.17,-2.17l-0.22,-1.76l-0.11,-0.62l-0.44,-1.93l0.15,-0.57l0.32,-0.44l0.38,-0.27l1.2,-0.66l1.17,-0.47l2.43,-1.57l-0.15,-4.27l-0.39,-3.03l-1.54,-1.89l-0.78,-0.19l-0.51,-0.35l-0.67,-0.73l-0.29,-0.53l-0.07,-0.7l1.43,-4.1l0.5,-1.13l0.44,-0.78l0.93,-1.49l0.24,-0.51l0.18,-0.58l0.39,-2.42l-0.61,-0.41l-0.32,-0.32l0.17,-0.75l0.26,-0.39l0.4,-0.25l0.37,-0.16l0.67,-0.24l0.48,-0.01l0.64,0.21l0.64,-0.2l1.41,-1.55l1.16,-2.01l2.43,-1.19l0.27,-0.37l0.28,-1.22l-0.18,-0.88l-0.55,-0.64l-1.51,-2.15l0.67,-5.77l0.4,-0.43l1.21,-0.09l0.66,-0.28l2.31,-2.19l0.25,-0.5l0.11,-0.82l-0.07,-3l-0.35,-1.25l-0.64,-1.58l-0.29,-4.16l-0.1,-0.64l-0.37,-0.67l-0.61,-0.3l-0.62,-0.23l-1.21,-1.35l0.92,-0.44l0.48,-0.05l0.57,-0.13l0.49,-0.22l0.46,-0.53l0.36,-0.74l0.38,-0.62l0.61,-0.83l0.38,-0.34l0,0l2.04,0.02l7.84,0l3.61,-0.02l12.69,0l6.05,0.02l4.82,0l0.61,-0.02l17.5,0l0.6,0.02l16.9,-0.02l0.89,0.02l0,0l-0.61,1.85l-0.05,1.53l0.04,1.23l0.17,0.9l0.5,2.39l0.15,0.58l0.72,2.54l0.56,1.05l1.02,1.63l0.75,1.13l0.86,1.13l0.35,0.38l2.35,1.92l0.53,0.28l1.44,1.3l2.64,2.96l2.45,3.14l1.51,1.13l0.47,0.27l0.73,0.17l0.5,0.05l0.36,-0.01l0.81,-0.09l1.28,-0.02l2.46,0.41l0.34,0.45l2.58,0.41l1.97,-0.06l0.84,-0.45l0.73,-0.2l0.44,0.01l1.72,0.91l2.16,2.48l0.77,3.61l0,0.54l-0.05,1.02l-0.16,1.9l-0.2,2.03l-0.54,2.01l-1.54,3.86l-0.32,0.29l-0.78,0.04l-0.69,-0.24l-0.59,-0.04l-0.51,0.15l-0.35,0.23l-0.3,0.35l-0.45,0.56l-0.42,0.33l-1.03,0.15l-1.06,0.46l-0.26,0.54l0.57,-0.44l0.54,-0.13l1,-0.09l2.71,-1.37l0.37,0.04l0.95,0.63l2.1,3.32l-0.02,0.88l-0.7,0.19l-0.45,-0.2l-0.56,-0.36l-0.53,-0.16l-0.98,0.43l0.38,2.37l-0.32,1.16l-1.87,0.21l-3.88,3.89l-0.98,1.07l-1.36,1.57l-1.02,1.54l-1.5,0.27l-1.63,0.65l-0.45,0.23l-0.42,0.42l-1.15,1.51l-1.35,1.61l-0.98,0.21l-0.6,0.16l-0.45,0.16l-0.52,0.23l-1.75,0.9l-0.46,0.3l-0.65,0.77l-1.46,2.59l-0.71,1.6l-0.73,0.32l-0.51,0.25l-0.45,0.31l-1.21,1.07l-1.49,1.93l-0.39,0.55z" title="Santa Cruz" id="AR-Z"/>
  <path d="m214.91,488.57l-0.61,-0.34l-0.3,-0.13l-0.64,-0.21l-1.69,-0.27l-1.15,0.33l-0.2,0.45l-0.23,0.1l-2.89,0.33l-0.41,0.02l-0.35,-0.09l-0.36,-0.17l-0.38,-0.38l-1.09,-1.49l0.07,-7.57l0.03,-5.93l-0.02,-0.64l0.05,-10.39l0.04,-4.84l0.05,-10.07l0.02,-5.21l-0.01,-1.87l0.06,-14.46l0.04,-4.31l0.02,-0.27l0.84,1.34l0.85,1.61l1.33,2.17l0.74,0.93l1.13,1.14l0.29,0.33l0.53,0.91l0.15,0.27l0.13,0.28l0.33,0.91l0.14,0.48l0.08,0.33l0.6,3.22l0.01,0.36l-0.29,-0.03l-0.24,-0.74l-0.09,-0.33l-0.1,-0.52l-0.14,-0.88l-0.12,-0.5l-0.24,-0.43l-0.4,-0.27l-0.25,-0.02l-0.74,0.29l-0.43,0.29l-2.75,3.39l-0.34,0.8l-0.09,0.64l0,0.42l0.08,0.33l0.1,0.33l0.25,0.59l0.33,0.5l0.19,0.23l0.31,0.31l0.72,0.53l0.5,0.34l0.48,0.14l0.73,0.11l0.98,0.03l0.48,-0.04l1.04,-0.41l0.46,-0.06l0.38,0.04l0.3,0.23l0.22,0.31l0.94,1.98l0.13,0.31l0.11,0.31l0.37,2.15l0.42,1.88l0.63,1.42l0.21,0.42l0.15,0.27l0.33,0.5l3.01,3.08l1.18,1.15l1.46,1.36l0.53,0.42l0.78,0.8l0.03,0.46l-0.09,0.34l0,0.42l0.04,0.38l0.13,0.5l0.11,0.32l0.18,0.25l3.7,3.39l1.67,1.3l4.95,3.55l2.25,1.3l0.47,0.16l1.57,0.97l0.73,0.56l0.24,0.19l0.33,0.32l2.1,3.11l0.36,0.39l4.14,3l1.44,0.91l3.52,1.71l4.35,2.02l1.84,0.44l0.37,0.05l0.22,-0.01l4.45,-0.74l1.77,-0.43l0.6,-0.06l1.12,0l0.3,0.02l1.09,0.28l0.34,0.32l-1.78,5.02l-1.46,2.77l-0.33,0.52l-0.25,0.29l-0.47,0.09l-0.36,-0.17l-0.09,-0.36l-1.52,-0.35l-2.12,0.92l-1.88,-0.19l-0.14,-0.3l-0.24,-0.31l-0.19,-0.13l-0.55,-0.2l-2,-0.14l-0.19,0.03l-0.86,0.2l-0.29,0.62l-0.56,0.66l-0.49,0.48l-1.71,0.8l-0.35,0.1l-1.14,0.17l-1.35,-0.14l-1.43,-0.05l-0.22,0l-0.43,0.12l-0.17,0.15l-1.11,1.91l-0.22,0l-1.7,-0.22l-0.52,-0.12l-0.94,-0.35l-0.37,-0.17l-0.4,-0.36l-0.2,-0.24l-0.16,-0.28l-0.27,-0.38l-0.33,-0.32l-0.36,-0.3l-0.9,-0.61l-0.46,-0.18l-3.44,-0.98l-0.19,-0.04l-2.45,-0.29l-6.02,-0.66l-2.09,0.16l-0.37,0.07l-0.58,0.07l-0.41,0.02l-0.63,-0.02l-2.03,-0.3l-3.15,-0.51l-0.52,-0.12l-0.6,-0.26l-0.11,-0.08zm61.37,1.88l0.16,-1.2l-0.61,-0.68l-0.44,-0.09l-0.42,-0.05l-0.09,-0.35l0.27,-0.78l0.87,-0.93l0.45,-0.06l0.35,0.18l0.45,0.41l0.27,0.16l0.2,0.02l1.49,-0.5l2.49,-1.11l0.74,-0.63l3.06,0.47l2.63,-0.33l1.87,-0.57l0.22,-0.02l1.55,0.21l0.16,0.26l-0.99,1.74l-1.56,0.87l-0.4,-0.67l-0.64,-0.38l-0.52,0.36l-1.73,0.91l-2.21,0.69l-0.19,-0.41l0.05,-0.68l-1.11,-0.55l-0.41,0.45l-1.33,1.15l-0.54,0.23l-0.2,0.04l-0.39,-0.03l-1.67,0.65l-1.13,1.06l-0.7,0.16zm-71.69,-3.22l0.27,0.34l0.18,0.32l0.47,1.1l0.13,0.13l0.21,0.13l0.15,0.18l-0.03,0.19l-0.17,0.1l-0.2,0.04l-0.27,0.13l-0.2,0.06l-0.26,0l-0.2,-0.03l-0.21,-0.07l0.11,-0.11l0.02,-2.51z" title="Tierra del Fuego" id="AR-V"/>
 </g>
</svg>