<svg width="561.82155" height="595.22246" xmlns="http://www.w3.org/2000/svg" data-name="Layer 1">
 <g id="Layer_1">
  <title>Layer 1</title>
  <path id="svg_18" fill="#3f3d56" d="m520.01993,148.13278a12.75277,12.89245 0 0 0 -6.59399,1.89144a127.17649,128.56938 0 0 0 -127.0195,-122.27009l-210.68013,0a127.17708,128.56998 0 0 0 -127.17702,128.56994l0,292.69749a127.1771,128.56999 0 0 0 127.17702,128.57012l210.68013,0a127.17712,128.57001 0 0 0 127.17704,-128.57012l0,-205.0896a12.7405,12.88004 0 0 0 6.43646,1.80507a12.87293,13.01392 0 0 0 12.87291,-13.0139l0,-71.57651a12.87279,13.01377 0 0 0 -12.87291,-13.01383z"/>
  <path id="svg_19" fill="#fff" d="m479.83367,147.89858c-0.07042,-1.5798 -0.19366,-3.14184 -0.35211,-4.70389a91.48036,92.23273 0 0 0 -90.93355,-83.01916l-222.30743,0a91.46758,92.21984 0 0 0 -90.93355,83.01916c-0.15845,1.56205 -0.28169,3.12409 -0.35211,4.70389q-0.10563,2.20994 -0.10563,4.41988l0,298.95418a91.47968,92.23203 0 0 0 91.39129,92.14293l222.30743,0a91.491,92.24345 0 0 0 91.39129,-92.14293l0,-298.95418q0,-2.20999 -0.10563,-4.41988z"/>
  <polygon id="svg_20" fill="#3f3d56" points="435.9389953613281,395.6059875488281 435.9389953613281,401.5660095214844 435.1390075683594,399.9460144042969 414.7690124511719,358.89599609375 414.7489929199219,358.885986328125 357.51898193359375,243.5959930419922 357.51898193359375,243.58599853515625 356.1990051269531,240.9459991455078 356.1990051269531,240.92599487304688 332.9989929199219,194.17599487304688 335.968994140625,194.17599487304688 359.15899658203125,240.92599487304688 359.17901611328125,240.9459991455078 360.489013671875,243.58599853515625 360.489013671875,243.5959930419922 416.2590026855469,355.95599365234375 416.2590026855469,355.96600341796875 417.5790100097656,358.6059875488281 417.5790100097656,358.6260070800781 435.9389953613281,395.6059875488281 "/>
  <path id="svg_21" fill="#3f3d56" d="m425.54929,235.10556l-239.28,1.49l0,-2.65l238.28,-0.84c0.71997,0.87 0.31994,1.10999 1,2z"/>
  <polygon id="svg_22" fill="#3f3d56" points="407.4490051269531,365.59600830078125 176.8489990234375,365.59600830078125 176.8489990234375,362.9460144042969 406.9389953613281,362.9460144042969 406.9389953613281,364.5660095214844 407.4490051269531,365.59600830078125 "/>
  <path id="svg_23" fill="#f9a826" d="m388.56176,154.91795a64.4511,71.48494 0 0 0 -89.80533,17.28629l0,0c-20.49525,32.27895 -41.06067,116.92245 -26.54353,165.95708c43.30101,-50.72942 109.82431,-56.00082 131.93426,-83.6372c23.62528,-29.53046 13.51746,-76.8742 -15.58539,-99.60617z"/>
  <circle fill="#fff" r="17.37481" cy="252.69575" cx="346.1411" data-name="af3c8991-f89c-43e0-a050-89c81726f2a6" id="b452c1c8-53ab-4ced-a544-b8816c88fdab"/>
  <circle fill="#f9a826" r="11.38013" cy="362.70335" cx="208.67924" data-name="a49e5b2e-c339-415c-b240-8977b61bd9a6" id="a24bae02-bdbe-4fd0-a0d6-bc02ca4e3c9e"/>
  <path id="svg_24" opacity="0.2" fill="#231f20" d="m364.73009,248.68667a17.37449,17.37449 0 0 1 -30.0083,17.52124a17.37227,17.37227 0 0 0 26.4519,-21.83054a17.3753,17.3753 0 0 1 3.5564,4.3093z"/>
  <path id="svg_25" opacity="0.2" fill="#231f20" d="m411.53278,265.1258c-23.20011,27.4646 -93.00376,32.70326 -138.43991,83.11745a93.55047,98.26958 0 0 1 -3.26581,-14.10489c45.41356,-45.8311 111.33112,-51.62314 133.74675,-78.15887c20.06233,-23.75005 16.93928,-59.09231 -1.16677,-83.68367c24.83215,24.17965 31.84361,65.93629 9.12575,92.82997z"/>
  <circle id="svg_51" fill="#e6e6e6" r="25" cy="388.10556" cx="261.54929"/>
  <circle id="svg_52" fill="#e6e6e6" r="14" cy="438.10556" cx="176.54929"/>
  <circle id="svg_53" fill="#e6e6e6" r="14" cy="413.10556" cx="388.54929"/>
  <rect id="svg_54" fill="#3f3d56" height="2" width="70.625" y="256.69565" x="141.84907"/>
 </g>
</svg>