<svg version="1.2" xmlns="http://www.w3.org/2000/svg" viewBox="0 0 1018 1280" width="1018" height="1280">
	<title>786745-svg</title>
	<style>
		.s0 { fill: #000000 } 
	</style>
	<g id="Layer">
		<path id="Layer" class="s0" d="m719.7 36.5c18.3 16.9 36 44.5 48.1 75 36.6 92.3 31.8 220.2-11.4 302.5-7.4 14.1-18.8 30.9-26.7 39.5-3.5 3.8-10.2 12.2-14.9 18.5-4.7 6.3-11.8 15.5-15.7 20.5-7.8 9.8-14.9 23.2-17.8 33.5-2.1 7.6-2.2 25.6-0.4 59.4 0.6 11.6 1.6 33 2.1 47.6 0.6 14.6 1.4 37.3 2 50.5 0.5 13.2 1.4 37.7 2 54.5 0.6 16.8 1.9 52.8 3 80 1 27.2 2.2 61.4 2.5 76 0.5 24.2 4 114.9 6.5 170 0.6 12.4 1.7 36.9 2.5 54.5 0.7 17.6 1.9 49.3 2.6 70.5 1.4 44.4 1.4 44.2-7.1 61.9-6 12.4-14.4 21.5-23.7 25.8-5.1 2.4-7.1 2.7-15.9 2.8-9.6 0-10.3-0.2-17.6-3.8-12.5-6.1-21.7-18.3-26.7-35.2-3-10.4-3.5-19.3-2.3-42.8 0.7-11.7 1.6-33.6 2.2-48.7 1-27.6 2.8-67.8 7.5-164.5 1.4-28.6 3.2-72 4-96.5 0.8-24.5 2.2-58 3-74.5 0.8-16.5 3.1-63.3 5-104 6.8-144.9 7.2-166.3 3.6-180-4.1-15.6-9.4-24.3-25.8-42.4-4.6-5-12.4-14.6-17.4-21.3-5-6.8-10.9-14.4-13-16.9-11.3-13.6-25.9-39.5-34.3-61.1-44.9-114.9-25.6-272.8 42.1-344.7 16.9-18 34.4-28.5 54.3-32.6 26-5.3 54.1 4.1 77.7 26z"/>
		<path id="Layer copy" class="s0" d="m339.7 37.5c18.3 16.9 36 44.5 48.1 75 36.6 92.3 31.8 220.2-11.4 302.5-7.4 14.1-18.8 30.9-26.7 39.5-3.5 3.8-10.2 12.2-14.9 18.5-4.7 6.3-11.8 15.5-15.7 20.5-7.8 9.8-14.9 23.2-17.8 33.5-2.1 7.6-2.2 25.6-0.4 59.4 0.6 11.6 1.6 33 2.1 47.6 0.6 14.6 1.4 37.3 2 50.5 0.5 13.2 1.4 37.7 2 54.5 0.6 16.8 1.9 52.8 3 80 1 27.2 2.2 61.4 2.5 76 0.5 24.2 4 114.9 6.5 170 0.6 12.4 1.7 36.9 2.5 54.5 0.7 17.6 1.9 49.3 2.6 70.5 1.4 44.4 1.4 44.2-7.1 61.9-6 12.4-14.4 21.5-23.7 25.8-5.1 2.4-7.1 2.7-15.9 2.8-9.6 0-10.3-0.2-17.6-3.8-12.5-6.1-21.7-18.3-26.7-35.2-3-10.4-3.5-19.3-2.3-42.8 0.7-11.7 1.6-33.6 2.2-48.7 1-27.6 2.8-67.8 7.5-164.5 1.4-28.6 3.2-72 4-96.5 0.8-24.5 2.2-58 3-74.5 0.8-16.5 3.1-63.3 5-104 6.8-144.9 7.2-166.3 3.6-180-4.1-15.6-9.4-24.3-25.8-42.4-4.6-5-12.4-14.6-17.4-21.3-5-6.8-10.9-14.4-13-16.9-11.3-13.6-25.9-39.5-34.3-61.1-44.9-114.9-25.6-272.8 42.1-344.7 16.9-18 34.4-28.5 54.3-32.6 26-5.3 54.1 4.1 77.7 26z"/>
	</g>
</svg>